<?xml version="1.0" standalone="no"?>
<!DOCTYPE svg PUBLIC "-//W3C//DTD SVG 20010904//EN"
 "http://www.w3.org/TR/2001/REC-SVG-20010904/DTD/svg10.dtd">
<svg version="1.0" xmlns="http://www.w3.org/2000/svg"
 width="64.000000pt" height="64.000000pt" viewBox="0 0 64.000000 64.000000"
 preserveAspectRatio="xMidYMid meet">
<metadata>
Created by potrace 1.10, written by Peter Selinger 2001-2011
</metadata>
<g transform="translate(0.000000,64.000000) scale(0.100000,-0.100000)"
fill="#000000" stroke="none">
<path d="M270 550 l0 -40 -45 0 -45 0 0 -55 0 -55 46 0 46 0 -4 -42 -3 -43 55
0 55 0 0 43 0 42 43 0 42 0 0 55 0 55 -45 0 -45 0 0 40 0 40 -50 0 -50 0 0
-40z m87 -17 c8 -35 12 -38 46 -41 35 -3 37 -5 37 -37 0 -32 -2 -34 -37 -37
-37 -3 -38 -4 -41 -46 -3 -43 -3 -43 -40 -40 -34 3 -37 6 -38 33 -1 43 -11 55
-44 55 -22 0 -29 6 -34 25 -9 34 -1 45 33 45 35 0 51 17 51 52 0 24 4 28 29
28 25 0 30 -5 38 -37z"/>
<path d="M495 260 c-30 -30 -58 -50 -72 -50 -12 0 -25 -4 -28 -10 -3 -5 1 -10
10 -10 26 0 67 26 104 64 33 34 61 47 61 28 0 -5 -40 -47 -89 -95 l-88 -87
-107 0 c-64 0 -106 -4 -106 -10 0 -16 196 -13 228 4 47 25 184 171 180 192 -7
36 -41 27 -93 -26z"/>
<path d="M215 240 c-48 -50 -41 -52 16 -5 38 32 47 36 93 33 43 -3 51 -6 51
-23 0 -16 -9 -21 -40 -26 l-40 -6 37 -2 c50 -2 68 7 68 34 0 28 -16 35 -89 35
-53 0 -59 -3 -96 -40z"/>
<path d="M53 234 c-2 -6 -3 -51 -1 -100 l3 -89 50 0 50 0 3 102 3 103 -52 -3
c-28 -1 -53 -7 -56 -13z m55 -74 c-2 -39 0 -70 5 -70 4 0 7 30 7 67 0 48 3 64
11 56 6 -6 9 -38 7 -74 l-3 -64 -35 -2 c-19 -1 -29 0 -22 3 17 8 15 24 -3 24
-12 0 -15 12 -14 58 2 55 2 55 9 17 l7 -40 2 41 c0 22 4 44 8 47 18 19 24 1
21 -63z"/>
</g>
</svg>
